<svg version="1.1" id="Layer_1" xmlns="http://www.w3.org/2000/svg" xmlns:xlink="http://www.w3.org/1999/xlink" x="0px" y="0px"
	 width="100%" viewBox="0 0 118 110" enable-background="new 0 0 118 110" xml:space="preserve">
<path fill="#0D3E92" opacity="1.000000" stroke="none" 
	d="
M85.000000,111.000000 
	C56.666668,111.000000 28.833334,111.000000 1.000000,111.000000 
	C1.000000,74.333336 1.000000,37.666668 1.000000,1.000000 
	C40.333332,1.000000 79.666664,1.000000 119.000000,1.000000 
	C119.000000,37.666668 119.000000,74.333336 119.000000,111.000000 
	C107.833336,111.000000 96.666664,111.000000 85.000000,111.000000 
M69.347229,32.506443 
	C64.352341,32.575706 59.336121,32.374279 54.366634,32.765888 
	C40.439362,33.863396 28.834394,48.061546 31.564400,60.815449 
	C32.629478,60.233860 33.636894,59.708874 34.620625,59.142731 
	C44.992580,53.173664 56.259548,50.620167 68.123459,50.608845 
	C69.620880,50.607414 71.119438,51.795383 72.617470,52.432285 
	C71.081024,53.263363 69.622986,54.555080 67.992325,54.832649 
	C64.231728,55.472763 60.337475,55.342793 56.585617,56.016376 
	C40.808960,58.848808 27.791603,66.110382 19.180849,80.102859 
	C17.437744,82.935410 15.101657,86.261795 19.224052,88.711380 
	C23.237219,91.096062 24.931746,87.654449 26.898481,84.794258 
	C29.354563,81.222412 32.296120,77.984406 35.257854,74.317802 
	C45.279259,85.962387 56.803246,88.000252 69.893814,83.495285 
	C94.146072,75.149155 103.081261,44.230999 94.430481,22.581766 
	C92.804070,18.511570 90.837395,19.365171 88.801239,22.174717 
	C84.222176,28.493053 78.104370,31.977211 69.347229,32.506443 
z"/>
<path fill="#FAFBFD" opacity="1.000000" stroke="none" 
	d="
M69.817085,32.460449 
	C78.104370,31.977211 84.222176,28.493053 88.801239,22.174717 
	C90.837395,19.365171 92.804070,18.511570 94.430481,22.581766 
	C103.081261,44.230999 94.146072,75.149155 69.893814,83.495285 
	C56.803246,88.000252 45.279259,85.962387 35.257854,74.317802 
	C32.296120,77.984406 29.354563,81.222412 26.898481,84.794258 
	C24.931746,87.654449 23.237219,91.096062 19.224052,88.711380 
	C15.101657,86.261795 17.437744,82.935410 19.180849,80.102859 
	C27.791603,66.110382 40.808960,58.848808 56.585617,56.016376 
	C60.337475,55.342793 64.231728,55.472763 67.992325,54.832649 
	C69.622986,54.555080 71.081024,53.263363 72.617470,52.432285 
	C71.119438,51.795383 69.620880,50.607414 68.123459,50.608845 
	C56.259548,50.620167 44.992580,53.173664 34.620625,59.142731 
	C33.636894,59.708874 32.629478,60.233860 31.564400,60.815449 
	C28.834394,48.061546 40.439362,33.863396 54.366634,32.765888 
	C59.336121,32.374279 64.352341,32.575706 69.817085,32.460449 
z"/>
</svg>